# Blender 3.6.1
# www.blender.org
mtllib platform.mtl
o Cube
v 1.000000 0.239518 -6.439819
v 1.000000 -0.239518 -6.439819
v 1.000000 0.239518 6.439819
v 1.000000 -0.239518 6.439819
v -1.000000 0.239518 -6.439819
v -1.000000 -0.239518 -6.439819
v -1.000000 0.239518 6.439819
v -1.000000 -0.239518 6.439819
v -1.000000 -0.239518 -2.879014
v 1.000000 0.239518 -2.879014
v -1.000000 0.239518 -2.879014
v 1.000000 -0.239518 -2.879014
v -1.000000 0.239518 -4.659417
v 1.000000 -0.239518 -4.659417
v -1.000000 -0.239518 -4.659417
v 1.000000 0.239518 -4.659417
v 9.032560 0.239518 -4.659417
v 9.032560 0.239518 -2.879014
v 9.032560 -0.239518 -2.879014
v 9.032560 -0.239518 -4.659417
v 3.753049 -0.239518 -4.659417
v 3.753049 -0.239518 -2.879014
v 3.753049 0.239518 -4.659417
v 3.753049 0.239518 -2.879014
v 9.032560 0.239518 6.340360
v 9.032560 -0.239518 6.340360
v 3.753049 0.239518 6.340360
v 3.753049 -0.239518 6.340360
v -1.000000 -0.239518 4.387331
v 1.000000 0.239518 4.387331
v -1.000000 0.239518 4.387331
v 1.000000 -0.239518 4.387331
vn -0.0000 1.0000 -0.0000
vn -0.0000 -0.0000 1.0000
vn -1.0000 -0.0000 -0.0000
vn -0.0000 -1.0000 -0.0000
vn 1.0000 -0.0000 -0.0000
vn -0.0000 -0.0000 -1.0000
vt 0.625000 0.710160
vt 0.875000 0.710160
vt 0.875000 0.750000
vt 0.625000 0.750000
vt 0.375000 0.750000
vt 0.625000 1.000000
vt 0.375000 1.000000
vt 0.375000 0.215442
vt 0.625000 0.215442
vt 0.625000 0.250000
vt 0.375000 0.250000
vt 0.125000 0.710160
vt 0.375000 0.710160
vt 0.125000 0.750000
vt 0.625000 0.500000
vt 0.375000 0.500000
vt 0.375000 0.569117
vt 0.375000 0.534558
vt 0.375000 0.569117
vt 0.125000 0.534558
vt 0.125000 0.569117
vt 0.375000 0.039840
vt 0.625000 0.039840
vt 0.625000 0.180883
vt 0.375000 0.180883
vt 0.625000 0.534558
vt 0.875000 0.534558
vt 0.875000 0.569117
vt 0.625000 0.569117
vt 0.875000 0.500000
vt 0.125000 0.500000
vt 0.625000 0.569117
vt 0.375000 0.000000
vt 0.625000 0.000000
s 0
usemtl Material
f 30/1/1 31/2/1 7/3/1 3/4/1
f 4/5/2 3/4/2 7/6/2 8/7/2
f 15/8/3 13/9/3 5/10/3 6/11/3
f 29/12/4 32/13/4 4/5/4 8/14/4
f 32/13/5 30/1/5 3/4/5 4/5/5
f 6/11/6 5/10/6 1/15/6 2/16/6
f 22/17/4 21/18/4 20/18/4 19/19/4
f 15/20/4 14/18/4 12/19/4 9/21/4
f 29/22/3 31/23/3 11/24/3 9/25/3
f 16/26/1 13/27/1 11/28/1 10/29/1
f 1/15/1 5/30/1 13/27/1 16/26/1
f 6/31/4 2/16/4 14/18/4 15/20/4
f 2/16/5 1/15/5 16/26/5 14/18/5
f 9/25/3 11/24/3 13/9/3 15/8/3
f 20/18/5 17/26/5 18/29/5 19/19/5
f 21/18/6 23/26/6 17/26/6 20/18/6
f 23/26/1 24/32/1 18/29/1 17/26/1
f 22/17/4 19/19/4 26/19/4 28/17/4
f 10/29/2 12/19/2 22/17/2 24/32/2
f 16/26/1 10/29/1 24/32/1 23/26/1
f 14/18/6 16/26/6 23/26/6 21/18/6
f 12/19/4 14/18/4 21/18/4 22/17/4
f 27/32/2 28/17/2 26/19/2 25/29/2
f 18/29/1 24/32/1 27/32/1 25/29/1
f 19/19/5 18/29/5 25/29/5 26/19/5
f 24/32/3 22/17/3 28/17/3 27/32/3
f 8/33/3 7/34/3 31/23/3 29/22/3
f 12/19/5 10/29/5 30/1/5 32/13/5
f 9/21/4 12/19/4 32/13/4 29/12/4
f 10/29/1 11/28/1 31/2/1 30/1/1
